<?xml version="1.0" standalone="no"?><!DOCTYPE svg PUBLIC "-//W3C//DTD SVG 1.1//EN" "http://www.w3.org/Graphics/SVG/1.1/DTD/svg11.dtd"><svg t="1744375633486" class="icon" viewBox="0 0 1024 1024" version="1.1" xmlns="http://www.w3.org/2000/svg" p-id="11068" xmlns:xlink="http://www.w3.org/1999/xlink" width="200" height="200"><path d="M96 112h864v864H96z" fill="#78909C" p-id="11069"></path><path d="M976 992H80V96h896v896zM112 960h832V128H112v832z" fill="#37474F" p-id="11070"></path><path d="M48 48h848v848H48z" fill="#FFFFFF" p-id="11071"></path><path d="M912 912H32V32h880v880zM64 880h816V64H64v816z" fill="#37474F" p-id="11072"></path><path d="M160 144h256v272H160z" fill="#37474F" p-id="11073"></path><path d="M416 432H160c-9.6 0-16-6.4-16-16V144c0-9.6 6.4-16 16-16h256c9.6 0 16 6.4 16 16v272c0 9.6-6.4 16-16 16z m-240-32h224V160H176v240z" fill="#37474F" p-id="11074"></path><path d="M331.2 348.8l-9.6-28.8h-70.4l-20.8 64h-25.6L272 192h30.4l67.2 192h-27.2l-11.2-35.2m-14.4-44.8l-19.2-59.2c-4.8-11.2-8-20.8-9.6-36.8-3.2 16-6.4 25.6-9.6 36.8L257.6 304h59.2z" fill="#FFAB00" p-id="11075"></path><path d="M588.8 161.6c0-4.8-4.8-9.6-9.6-9.6s-9.6 4.8-9.6 9.6 4.8 9.6 9.6 9.6 9.6-3.2 9.6-9.6z" fill="#37474F" p-id="11076"></path><path d="M579.2 179.2c-9.6 0-17.6-8-17.6-17.6 0-9.6 8-17.6 17.6-17.6 9.6 0 17.6 8 17.6 17.6 0 11.2-8 17.6-17.6 17.6zM657.6 161.6c0-4.8-4.8-9.6-9.6-9.6s-9.6 4.8-9.6 9.6 4.8 9.6 9.6 9.6c6.4 0 9.6-3.2 9.6-9.6z" fill="#37474F" p-id="11077"></path><path d="M648 179.2c-9.6 0-17.6-8-17.6-17.6 0-9.6 8-17.6 17.6-17.6 9.6 0 17.6 8 17.6 17.6 0 11.2-6.4 17.6-17.6 17.6z" fill="#37474F" p-id="11078"></path><path d="M728 161.6c0-4.8-4.8-9.6-9.6-9.6s-9.6 4.8-9.6 9.6 4.8 9.6 9.6 9.6 9.6-3.2 9.6-9.6z" fill="#37474F" p-id="11079"></path><path d="M718.4 179.2c-9.6 0-17.6-8-17.6-17.6 0-9.6 8-17.6 17.6-17.6 9.6 0 17.6 8 17.6 17.6 0 11.2-8 17.6-17.6 17.6z" fill="#37474F" p-id="11080"></path><path d="M496 432h304M800 448H496c-9.6 0-16-6.4-16-16s6.4-16 16-16h304c9.6 0 16 6.4 16 16s-6.4 16-16 16zM496 352h304M800 368H496c-9.6 0-16-6.4-16-16s6.4-16 16-16h304c9.6 0 16 6.4 16 16s-6.4 16-16 16z" fill="#FFAB00" p-id="11081"></path><path d="M496 288h304M800 304H496c-9.6 0-16-6.4-16-16s6.4-16 16-16h304c9.6 0 16 6.4 16 16s-6.4 16-16 16z" fill="#FFAB00" p-id="11082"></path><path d="M144 640h656" fill="#FFAB00" p-id="11083"></path><path d="M800 656H144c-9.6 0-16-6.4-16-16s6.4-16 16-16h656c9.6 0 16 6.4 16 16s-6.4 16-16 16z" fill="#37474F" p-id="11084"></path><path d="M144 576h656" fill="#FFAB00" p-id="11085"></path><path d="M800 592H144c-9.6 0-16-6.4-16-16s6.4-16 16-16h656c9.6 0 16 6.4 16 16s-6.4 16-16 16z" fill="#37474F" p-id="11086"></path><path d="M144 496h656" fill="#FFAB00" p-id="11087"></path><path d="M800 512H144c-9.6 0-16-6.4-16-16s6.4-16 16-16h656c9.6 0 16 6.4 16 16s-6.4 16-16 16z" fill="#37474F" p-id="11088"></path><path d="M144 704h656v96H144z" fill="#FFAB00" p-id="11089"></path><path d="M800 816H144c-9.6 0-16-6.4-16-16v-96c0-9.6 6.4-16 16-16h656c9.6 0 16 6.4 16 16v96c0 9.6-6.4 16-16 16z m-640-32h624v-64H160v64z" fill="#37474F" p-id="11090"></path></svg>