<?xml version="1.0" standalone="no"?><!DOCTYPE svg PUBLIC "-//W3C//DTD SVG 1.1//EN" "http://www.w3.org/Graphics/SVG/1.1/DTD/svg11.dtd"><svg t="1744730777022" class="icon" viewBox="0 0 1024 1024" version="1.1" xmlns="http://www.w3.org/2000/svg" p-id="16447" xmlns:xlink="http://www.w3.org/1999/xlink" width="200" height="200"><path d="M60.196481 418.559554a31.999966 31.999966 0 0 0 31.999966-31.999965v-52.479945a31.999966 31.999966 0 0 0-63.999932 0v52.479945a31.999966 31.999966 0 0 0 31.999966 31.999965z" fill="#333333" p-id="16448"></path><path d="M993.954487 518.079449a31.999966 31.999966 0 0 0-14.719984-19.51998l-111.039882-63.999932a31.999966 31.999966 0 0 0-43.519954 11.519988l-28.47997 49.279948V127.999864a95.999898 95.999898 0 0 0-95.999897-95.999898h-63.999932a31.999966 31.999966 0 0 0-31.999966-31.999966h-383.999591a31.999966 31.999966 0 0 0-31.999966 31.999966h-63.999932a95.999898 95.999898 0 0 0-95.999898 95.999898v69.439926a31.999966 31.999966 0 0 0 63.999932 0V127.999864a31.999966 31.999966 0 0 1 31.999966-31.999966h63.999932v15.999983a63.999932 63.999932 0 0 0 63.999932 63.999932h319.999659a63.999932 63.999932 0 0 0 63.999932-63.999932V95.999898h63.999932a31.999966 31.999966 0 0 1 31.999966 31.999966v478.079491l-155.519835 269.759713a29.759968 29.759968 0 0 0-4.479995 20.159978l9.919989 63.999932h-457.919512a31.999966 31.999966 0 0 1-31.999966-31.999966V530.559435a31.999966 31.999966 0 0 0-63.999932 0V927.999012a95.999898 95.999898 0 0 0 95.999898 95.998898h495.999472a29.439969 29.439969 0 0 0 11.519988-2.239998l95.999897-36.159961a31.999966 31.999966 0 0 0 16.319983-13.759985l191.999796-332.799646 55.99994-95.999898a30.079968 30.079968 0 0 0 1.919998-24.959973zM252.195277 111.999881V63.999932h319.999659v47.999949z m611.839348 393.91958l55.359941 31.999966-23.999974 41.599956-49.279948-28.47997-6.079993-3.519996z m-170.879818 423.999549l-47.359949 18.239981-7.999992-50.239947 170.239819-295.039686 27.83997 15.999983 27.519971 15.999983z" fill="#333333" p-id="16449"></path><path d="M636.194868 563.199401V287.999693a31.999966 31.999966 0 0 0-31.999966-31.999965h-383.999591a31.999966 31.999966 0 0 0-31.999966 31.999965v543.999421a31.999966 31.999966 0 0 0 31.999966 31.999966h215.35977a63.999932 63.999932 0 0 0 55.359941-31.999966l136.639855-236.799748a63.999932 63.999932 0 0 0 8.639991-31.999965z" fill="#FFC824" p-id="16450"></path></svg>