<?xml version="1.0" standalone="no"?><!DOCTYPE svg PUBLIC "-//W3C//DTD SVG 1.1//EN" "http://www.w3.org/Graphics/SVG/1.1/DTD/svg11.dtd"><svg t="1758431320217" class="icon" viewBox="0 0 1024 1024" version="1.1" xmlns="http://www.w3.org/2000/svg" p-id="10020" xmlns:xlink="http://www.w3.org/1999/xlink" width="200" height="200"><path d="M724.636735 304.796735a71.512816 71.512816 0 0 0-71.763592-69.673796c-0.501551 0-0.982204 0.062694-1.483755 0.083592-0.501551-0.020898-1.003102-0.083592-1.504653-0.083592-8.338286 0-16.237714 1.818122-23.384817 5.01551a71.324735 71.324735 0 0 0-44.867918 57.55298 322.246531 322.246531 0 0 0-159.514122 77.217959V306.364082a71.262041 71.262041 0 0 0-45.557551-66.246531 56.926041 56.926041 0 0 0-23.363919-5.01551c-0.501551 0-1.003102 0.062694-1.504653 0.083592-0.501551 0-0.982204-0.083592-1.504653-0.083592-39.706122 0-71.909878 31.911184-71.909878 71.262041v184.069224l-0.041795 0.041796c-0.835918 94.709551-78.137469 171.300571-173.724735 172.115592L104.489796 662.653388V285.612408l0.10449-0.125388c-0.041796-1.441959-0.10449-2.883918-0.10449-4.346775 0-95.064816 75.734204-172.491755 170.652735-176.483265L275.288816 104.489796H730.801633l0.417959 0.438857c92.870531 5.558857 166.577633 81.460245 167.371755 174.706939l0.020898 0.020898v145.846857a323.960163 323.960163 0 0 0-173.97551-120.706612z m-389.454368 427.572245a324.608 324.608 0 0 0 142.377796 165.637224L278.298122 898.612245l-0.041795-0.020898c-95.587265-0.835918-172.888816-71.47102-173.724735-166.201469L104.489796 732.36898h230.692571zM355.265306 626.938776c0-161.58302 130.988408-292.571429 292.571429-292.571429s292.571429 130.988408 292.571428 292.571429-130.988408 292.571429-292.571428 292.571428-292.571429-130.988408-292.571429-292.571428z" fill="#27A139" p-id="10021"></path><path d="M488.322612 632.100571h128.020898l-7.87853 16.781062H516.388571v110.571102h33.89649v-80.457143h40.061388v75.650612h33.89649v-75.650612h38.682122v75.650612h34.230857v-75.650612h43.133388v38.682122c0 7.523265-3.427265 11.305796-10.281796 11.305796l-22.235428-1.358367 8.212898 30.469224h23.949061c23.050449 0 34.586122-11.075918 34.586122-33.206857v-75.984979h-129.73453l7.87853-16.781062h141.709061v-30.113959H488.322612v30.093061z m20.877061-152.346122h114.688v13.688163h-130.089795V568.42449h34.230857v-47.919021h95.858938v71.199347h34.92049v-71.199347h95.838041V568.42449h34.230857v-74.96098h-130.089796v-13.688163h115.00147v-28.755592H509.199673v28.734694z m30.469225 75.650612h71.88898v-22.235428h-71.88898v22.235428z m0 33.562123h71.88898v-22.256327h-71.88898v22.256327z m131.113796-33.562123h71.533714v-22.235428h-71.533714v22.235428z m0.334367 33.562123h72.244245v-22.256327h-72.244245v22.256327z" fill="#FFFFFF" p-id="10022"></path></svg>