<?xml version="1.0" standalone="no"?><!DOCTYPE svg PUBLIC "-//W3C//DTD SVG 1.1//EN" "http://www.w3.org/Graphics/SVG/1.1/DTD/svg11.dtd"><svg t="1744895403710" class="icon" viewBox="0 0 1024 1024" version="1.1" xmlns="http://www.w3.org/2000/svg" p-id="17052" xmlns:xlink="http://www.w3.org/1999/xlink" width="200" height="200"><path d="M903.68 468.48c-0.512 3.584-1.536 6.656-1.536 10.24-2.56 21.504-10.24 40.96-22.528 58.88-19.456 27.648-45.056 46.592-77.824 55.296-5.12 1.024-9.728 2.048-14.848 3.584-1.536 0.512-3.072 1.536-4.096 2.56-10.752 10.752-22.016 21.504-32.768 32.768-2.56 2.56-4.096 2.56-6.656 0-8.704-9.216-18.432-17.92-27.136-27.136-5.12-5.12-10.24-8.192-16.896-9.216-19.968-3.584-37.888-12.288-54.272-24.576-17.408-13.312-31.232-30.208-40.96-49.664-7.168-14.848-11.776-30.208-13.312-46.592-3.072-27.648 2.048-53.76 14.336-78.336 7.168-14.848 16.896-27.136 29.184-38.4 17.408-16.384 38.4-27.136 61.952-33.28 10.24-2.56 21.504-3.072 32.256-4.096 12.288-0.512 24.576-0.512 36.864 0 31.744 0.512 60.416 10.24 85.504 30.208 26.112 20.992 43.008 48.128 50.176 80.896 1.024 5.12 1.024 10.752 2.048 15.872 0 1.024 0.512 2.048 1.024 2.56-0.512 5.632-0.512 11.776-0.512 18.432z m-203.776 44.032h99.84v-7.68h-45.568V476.16h34.816v-6.656h-79.36V476.16h35.84v28.16h-45.568v8.192z m46.08-92.16h-46.592v22.528h7.68v-15.36h84.48v15.36h6.656V419.84h-44.032c-1.536-4.096-3.072-8.192-4.608-11.776-3.072 0-5.12 0.512-7.68 1.024 1.536 4.096 2.56 7.68 4.096 11.264zM793.6 455.68c-11.264-6.656-22.016-13.312-33.28-19.968-1.536 2.56-3.072 4.608-3.584 5.632 10.752 6.656 21.504 13.824 32.768 20.48 1.536-1.536 2.56-3.072 4.096-6.144z m-86.528 6.656c12.288-4.608 23.04-11.776 33.28-19.456-1.536-2.048-3.072-3.584-4.096-4.096l-32.256 18.432c1.024 1.024 2.048 3.072 3.072 5.12z" p-id="17053"></path><path d="M679.936 173.568c5.632 2.048 11.776 3.072 17.408 6.144 18.432 10.24 29.696 25.6 29.696 47.616v40.448c0 6.656-3.584 10.24-9.728 10.24-6.656 0-11.264-4.096-11.264-10.24v-38.4c0-17.408-13.824-31.744-30.208-33.28-5.12-0.512-9.728-1.024-14.336-1.024H181.76c-13.824 0-25.088 5.12-32.256 17.408-2.56 4.096-4.608 9.728-4.608 14.336 0 189.952-0.512 379.904 0 569.344 0 17.408 8.704 31.744 22.016 43.008 8.704 7.168 18.944 11.776 30.208 13.824 1.536 0 3.072 0.512 4.608 0.512h519.68c-3.072-4.608-5.632-8.704-8.192-13.312-5.632-9.728-7.68-20.48-7.68-31.744v-144.384c0-7.68 7.168-15.36 16.896-10.24 4.096 2.048 4.608 5.12 4.608 9.216v124.416h111.616c0 8.192 0.512 16.384 0 24.064-0.512 6.656-2.048 13.824-4.096 19.968-8.704 23.04-24.576 36.864-48.64 42.496-3.072 0.512-5.632 1.024-8.192 2.048H199.68c-0.512 0-1.024-1.024-1.536-1.024-12.8-0.512-24.576-5.12-35.328-11.776-16.384-10.24-28.672-24.064-34.816-42.496-2.048-6.656-3.584-13.824-5.632-20.48V222.72c0-0.512 1.024-1.024 1.024-1.536 2.56-17.92 11.776-31.744 28.16-40.448 6.144-3.072 12.8-5.12 18.944-7.168h509.44z m47.104 635.904c1.024 32.256 30.208 49.152 54.784 43.52 19.968-4.608 35.84-25.088 33.792-43.52H727.04z" p-id="17054"></path><path d="M268.288 414.72H512v20.48H268.288v-20.48z m0 112.128H512v21.504H268.288v-21.504z m0 112.128h313.344v21.504H268.288v-21.504zM71.168 97.792h89.088v16.384H71.168z" p-id="17055"></path><path d="M107.6224 151.05024v-89.088h16.384v89.088zM14.848 911.872h89.088v16.384H14.848z" p-id="17056"></path><path d="M51.3024 965.13024v-89.088h16.384v89.088z" p-id="17057"></path><path d="M828.928 97.792h89.088v16.384h-89.088z" p-id="17058"></path><path d="M865.3824 151.05024v-89.088h16.384v89.088z" p-id="17059"></path><path d="M880.128 660.992h89.088v16.384h-89.088z" p-id="17060"></path><path d="M916.5824 714.25024v-89.088h16.384v89.088z" p-id="17061"></path></svg>