<?xml version="1.0" standalone="no"?><!DOCTYPE svg PUBLIC "-//W3C//DTD SVG 1.1//EN" "http://www.w3.org/Graphics/SVG/1.1/DTD/svg11.dtd"><svg t="1750340938253" class="icon" viewBox="0 0 1024 1024" version="1.1" xmlns="http://www.w3.org/2000/svg" p-id="3491" xmlns:xlink="http://www.w3.org/1999/xlink" width="200" height="200"><path d="M380.032 594.24l-202.794667 101.973333a221.824 221.824 0 0 0-116.330666 148.074667L21.333333 1014.869333h980.437334l-69.226667-231.829333a108.586667 108.586667 0 0 0-57.386667-67.029333l-260.48-129.664-234.666666 7.893333" fill="#5684E1" p-id="3492"></path><path d="M524.693333 736.810667h-52.096l-18.282666 277.973333h88.661333z" fill="#FFFFFF" p-id="3493"></path><path d="M436.949333 667.093333l28.330667 72.469334h66.730667l27.413333-72.448z" fill="#3963B2" p-id="3494"></path><path d="M436.949333 665.28l28.330667 72.448h66.730667l27.413333-72.448z" fill="#FFFFFF" p-id="3495"></path><path d="M607.253333 91.925333C583.957333 43.605333 549.610667 17.621333 474.410667 15.936c-85.674667-1.706667-125.226667 32.96-130.218667 48.789333-2.069333 6.592-0.597333 28.693333-14.208 34.666667C301.034667 110.058667 294.229333 128.469333 295.274667 134.272c2.538667 14.165333-1.536 26.005333-6.4 35.776C276.757333 189.952 276.16 207.957333 290.794667 227.498667c14.656 19.562667 35.690667 85.973333 35.690666 85.973333l6.762667 13.098667 304.448 13.098666s25.962667-33.130667 27.093333-36.842666c1.088-3.712 34.432-104.277333 36.352-158.037334-0.512-60.010667-83.541333-51.52-93.866666-52.906666" fill="#2B1506" p-id="3496"></path><path d="M387.584 669.866667H609.706667v-151.338667H387.584z" fill="#DBB5A6" p-id="3497"></path><path d="M455.914667 714.581333c-16.682667 27.946667-36.16 42.304-24.170667 51.584 15.466667-10.496 27.242667-32.213333 39.765333-60.16 12.544-27.989333 27.306667-36.736 27.306667-36.736-11.584-1.514667-26.218667 17.365333-42.88 45.312" fill="#3860B0" p-id="3498"></path><path d="M388.842667 570.816c-10.282667 4.096-12.330667 31.957333-16.384 45.312-11.477333 31.296-1.173333 77.738667 11.733333 91.434667 12.842667 13.674667 38.762667 48.746667 45.994667 57.813333 5.973333-0.917333 28.309333-32.682667 38.208-57.813333 9.92-25.152 19.157333-33.109333 30.421333-39.082667-130.346667-60.458667-109.973333-97.664-109.973333-97.664" fill="#8EB1F8" p-id="3499"></path><path d="M541.610667 714.581333c-16.64-27.946667-31.232-46.826667-42.794667-45.312 0 0 14.72 8.746667 27.221333 36.736 12.522667 27.946667 24.234667 49.664 39.68 60.16 11.946667-9.28-7.466667-23.637333-24.106666-51.584" fill="#3963B2" p-id="3500"></path><path d="M624.853333 616.128c-4.032-13.354667-6.08-41.216-16.32-45.312 0 0 20.288 37.205333-109.717333 97.664 11.242667 5.973333 20.458667 13.930667 30.336 39.082667 9.877333 25.130667 32.170667 56.896 38.122667 57.813333 7.210667-9.066667 33.066667-44.138667 45.909333-57.813333 12.842667-13.696 23.125333-60.16 11.669333-91.434667" fill="#8EB1F8" p-id="3501"></path><path d="M493.162667 150.762667c-178.922667 0-162.24 106.965333-162.24 238.912s101.077333 193.962667 157.226666 193.962666c56.106667 0 167.253333-62.016 167.253334-193.962666 0-131.946667 16.682667-238.912-162.24-238.912" fill="#EECFC2" p-id="3502"></path><path d="M688 281.941333c-17.6-3.370667-37.418667 22.997333-44.266667 58.922667-6.826667 35.946667 1.877333 67.797333 19.498667 71.189333 17.6 3.370667 37.44-22.997333 44.266667-58.944 6.848-35.946667-1.877333-67.797333-19.477334-71.168" fill="#EECFC2" p-id="3503"></path><path d="M492.757333 159.936c-178.922667 0-162.24 106.965333-162.24 238.912s111.146667 193.962667 167.253334 193.962667c56.149333 0 157.226667-62.016 157.226666-193.962667 0-131.946667 16.682667-238.933333-162.24-238.933333" fill="#EECFC2" p-id="3504"></path><path d="M342.186667 350.058667c-6.848-35.946667-26.666667-62.336-44.288-58.944-17.621333 3.370667-26.325333 35.242667-19.477334 71.168 6.826667 35.925333 26.666667 62.336 44.288 58.944 17.6-3.392 26.325333-35.242667 19.477334-71.168" fill="#EECFC2" p-id="3505"></path><path d="M547.264 100.309333h-152.512L318.933333 168s-11.434667 65.194667-10.816 68.522667c0.618667 3.328 32.490667 132.032 32.490667 132.032s-11.456-65.130667 14.165333-78.549334c19.242667-13.44 13.994667-48.128 6.656-63.509333-7.317333-15.381333 24.704-35.413333 70.016-32.597333 45.290667 2.837333 106.069333-4.522667 135.018667-10.026667 28.949333-5.504 67.093333 12.757333 59.157333 63.530667-5.546667 13.226667-6.613333 28.885333 6.656 42.602666 13.290667 13.738667 23.765333 31.573333 22.506667 78.549334 6.72 19.008 8.32-86.058667 8.32-86.058667l13.354667-140.394667-129.173334-41.792z" fill="#2B1506" p-id="3506"></path><path d="M489.685333 447.018667c-40.106667 0.917333-72.32 16-71.914666 33.728 0.384 17.728 33.258667 31.36 73.386666 30.442666 40.106667-0.917333 72.32-16.021333 71.893334-33.749333-0.384-17.706667-33.237333-31.36-73.365334-30.421333" fill="#EECFC2" p-id="3507"></path></svg>