<?xml version="1.0" standalone="no"?><!DOCTYPE svg PUBLIC "-//W3C//DTD SVG 1.1//EN" "http://www.w3.org/Graphics/SVG/1.1/DTD/svg11.dtd"><svg t="1744900411651" class="icon" viewBox="0 0 1755 1024" version="1.1" xmlns="http://www.w3.org/2000/svg" p-id="11352" xmlns:xlink="http://www.w3.org/1999/xlink" width="342.7734375" height="200"><path d="M91.428571 0h1024v1024H91.428571z" fill="#D8D8D8" fill-opacity="0" p-id="11353"></path><path d="M219.428571 213.333333m42.666667 0l597.333333 0q42.666667 0 42.666667 42.666667l0 0q0 42.666667-42.666667 42.666667l-597.333333 0q-42.666667 0-42.666667-42.666667l0 0q0-42.666667 42.666667-42.666667Z" fill="#4C4C4C" p-id="11354"></path><path d="M219.428571 469.333333m42.666667 0l682.666667 0q42.666667 0 42.666666 42.666667l0 0q0 42.666667-42.666666 42.666667l-682.666667 0q-42.666667 0-42.666667-42.666667l0 0q0-42.666667 42.666667-42.666667Z" fill="#4C4C4C" p-id="11355"></path><path d="M219.428571 725.333333m42.666667 0l384 0q42.666667 0 42.666667 42.666667l0 0q0 42.666667-42.666667 42.666667l-384 0q-42.666667 0-42.666667-42.666667l0 0q0-42.666667 42.666667-42.666667Z" fill="#4C4C4C" p-id="11356"></path></svg>