<?xml version="1.0" standalone="no"?><!DOCTYPE svg PUBLIC "-//W3C//DTD SVG 1.1//EN" "http://www.w3.org/Graphics/SVG/1.1/DTD/svg11.dtd"><svg t="1744376192876" class="icon" viewBox="0 0 1024 1024" version="1.1" xmlns="http://www.w3.org/2000/svg" p-id="18229" xmlns:xlink="http://www.w3.org/1999/xlink" width="200" height="200"><path d="M952.819254 1023.964692h-307.178815a71.216054 71.216054 0 0 1-71.145439-71.145438v-307.178815a71.216054 71.216054 0 0 1 71.145439-71.145439h183.318667a31.053307 31.053307 0 0 1 0 62.106614h-183.353975a9.038825 9.038825 0 0 0-9.038825 9.038825v307.178815a9.074133 9.074133 0 0 0 9.038825 9.038825h307.178815a9.074133 9.074133 0 0 0 9.038825-9.038825v-153.589408a31.035653 31.035653 0 1 1 62.071305 0v153.624716a71.216054 71.216054 0 0 1-71.074822 71.11013z m0 0" fill="#2D527C" p-id="18230"></path><path d="M31.070961 378.394869v-307.178815A40.109786 40.109786 0 0 1 71.180746 31.035653h307.178815a40.109786 40.109786 0 0 1 40.109786 40.109785v307.178815a40.109786 40.109786 0 0 1-40.109786 40.109786h-307.178815a40.109786 40.109786 0 0 1-40.109785-40.109786z m0 0" fill="#CEE8FA" p-id="18231"></path><path d="M378.394869 449.505h-307.178815A71.216054 71.216054 0 0 1 0.035308 378.394869v-307.178815A71.216054 71.216054 0 0 1 71.180746 0.035308h307.178815a71.216054 71.216054 0 0 1 71.145439 71.145438v307.178815a71.216054 71.216054 0 0 1-71.145439 71.145439z m-307.178815-387.433695a9.074133 9.074133 0 0 0-9.038825 9.038825v307.178816a9.038825 9.038825 0 0 0 9.038825 9.038824h307.178815a9.038825 9.038825 0 0 0 9.038825-9.038824v-307.178816a9.038825 9.038825 0 0 0-9.038825-9.038825z m0 0" fill="#2D527C" p-id="18232"></path><path d="M605.530653 378.394869v-307.178815a40.074478 40.074478 0 0 1 40.074478-40.109785h307.178815a40.074478 40.074478 0 0 1 40.074478 40.109785v307.178815a40.109786 40.109786 0 0 1-40.074478 40.109786h-307.178815a40.109786 40.109786 0 0 1-40.074478-40.109786z m0 0" fill="#CEE8FA" p-id="18233"></path><path d="M952.819254 449.505h-307.178815a71.216054 71.216054 0 0 1-71.145439-71.145439v-307.178815A71.216054 71.216054 0 0 1 645.605131 0.035308h307.178815A71.216054 71.216054 0 0 1 1023.964692 71.145438v307.178815a71.216054 71.216054 0 0 1-71.145438 71.145439z m-307.178815-387.433695a9.074133 9.074133 0 0 0-9.038825 9.038825v307.178816a9.038825 9.038825 0 0 0 9.038825 9.038824h307.178815a9.074133 9.074133 0 0 0 9.038825-9.038824v-307.178816a9.074133 9.074133 0 0 0-9.038825-9.038825z m0 0" fill="#2D527C" p-id="18234"></path><path d="M31.070961 952.854562v-307.178815a40.109786 40.109786 0 0 1 40.109785-40.109786h307.178815a40.109786 40.109786 0 0 1 40.109786 40.109786v307.178815a40.074478 40.074478 0 0 1-40.109786 40.074477h-307.178815a40.074478 40.074478 0 0 1-40.109785-40.074477z m0 0" fill="#CEE8FA" p-id="18235"></path><path d="M378.394869 1023.964692h-307.178815A71.216054 71.216054 0 0 1 0.035308 952.854562v-307.178815a71.216054 71.216054 0 0 1 71.145438-71.180747h307.178815a71.216054 71.216054 0 0 1 71.145439 71.145439v307.178815a71.216054 71.216054 0 0 1-71.110131 71.145438z m-307.178815-387.433694a9.074133 9.074133 0 0 0-9.038825 9.038825v307.178815a9.038825 9.038825 0 0 0 9.038825 9.038825h307.178815a9.038825 9.038825 0 0 0 9.038825-9.038825v-307.178815a9.038825 9.038825 0 0 0-9.038825-9.038825h-307.178815z m0 0" fill="#2D527C" p-id="18236"></path></svg>