<?xml version="1.0" standalone="no"?><!DOCTYPE svg PUBLIC "-//W3C//DTD SVG 1.1//EN" "http://www.w3.org/Graphics/SVG/1.1/DTD/svg11.dtd"><svg t="1758431493915" class="icon" viewBox="0 0 1024 1024" version="1.1" xmlns="http://www.w3.org/2000/svg" p-id="12782" xmlns:xlink="http://www.w3.org/1999/xlink" width="200" height="200"><path d="M534.988 624.057h49.782v68.66h-49.782z" p-id="12783" fill="#f4ea2a"></path><path d="M994.441 250.466l-98.65-156.044c-25.119-39.886-68.202-63.483-115.244-63.483h-534.05c-47.041 0-90.124 23.749-115.243 63.483L32.756 250.466C-5 310.143 1.699 388.546 49.046 441.219l2.283 2.436c7.46 8.221 15.68 15.529 24.358 21.923v427.635c0 45.824 40.8 82.818 91.038 82.818h693.747c50.39 0 91.038-37.146 91.038-82.818V464.207c9.439-6.698 18.573-14.158 26.642-23.292 47.346-52.37 53.892-130.772 16.29-190.45zM431.923 835.058h-39.43V685.104c-7.916 14.006-16.289 27.25-25.119 40.191-2.74-17.05-7.003-36.385-12.788-57.85 24.054-37.45 44.15-85.253 60.743-143.56l40.8 11.874a882.088 882.088 0 0 1-24.054 67.746v231.553z m47.498 3.197c-8.83-8.373-19.639-17.811-32.731-28.316 22.988-22.074 43.54-45.976 61.96-72.008l36.233 24.053c-18.268 24.815-40.19 50.239-65.462 76.271z m155.435-0.609c-17.508-24.358-38.364-49.325-62.57-74.9l33.036-23.445a1662.294 1662.294 0 0 1 66.832 70.334l-37.298 28.011z m38.364-103.673H446.08v-41.105h45.215V624.21H456.28v-41.104h35.015v-57.85h43.692v57.85h49.782v-57.85h43.692v57.85h35.776v41.104h-35.624v68.66h44.606v41.104z m244.646-347.255c-26.49 29.382-70.486 33.95-102.304 10.353l-72.16-53.588c-37.908-28.164-91.8-24.206-125.292 9.286-48.716 48.564-125.14 52.066-177.966 8.069l-20.857-17.355c-33.035-27.555-80.838-29.686-116.157-5.328l-91.495 63.026c-31.513 21.618-74.596 16.746-100.325-12.027l-2.283-2.436c-22.988-25.728-26.337-63.94-7.917-93.17l98.498-156.043c10.2-16.137 27.707-25.728 46.737-25.728h534.05c19.03 0 36.537 9.591 46.737 25.728L925.63 293.55c18.725 29.23 15.376 67.593-7.764 93.17z" p-id="12784" fill="#f4ea2a"></path></svg>